<?xml version="1.0" standalone="no"?>
<!DOCTYPE svg PUBLIC "-//W3C//DTD SVG 20010904//EN"
 "http://www.w3.org/TR/2001/REC-SVG-20010904/DTD/svg10.dtd">
<svg version="1.0" xmlns="http://www.w3.org/2000/svg"
 width="284.000000pt" height="284.000000pt" viewBox="0 0 284.000000 284.000000"
 preserveAspectRatio="xMidYMid meet">
<metadata>
Created by potrace 1.11, written by Peter Selinger 2001-2013
</metadata>
<g transform="translate(0.000000,284.000000) scale(0.100000,-0.100000)"
fill="#000000" stroke="none">
<path d="M100 2470 l0 -280 280 0 280 0 0 280 0 280 -280 0 -280 0 0 -280z
m480 0 l0 -200 -200 0 -200 0 0 200 0 200 200 0 200 0 0 -200z"/>
<path d="M260 2470 l0 -120 120 0 120 0 0 120 0 120 -120 0 -120 0 0 -120z"/>
<path d="M740 2630 l0 -120 80 0 80 0 0 -40 0 -40 -40 0 -40 0 0 -40 0 -40
-40 0 -40 0 0 -160 0 -160 -40 0 -40 0 0 40 0 40 -40 0 -40 0 0 -40 0 -40 40
0 40 0 0 -40 0 -40 -40 0 -40 0 0 -40 0 -40 80 0 80 0 0 -40 0 -40 -120 0
-120 0 0 -120 0 -120 -40 0 -40 0 0 -80 0 -80 -40 0 -40 0 0 80 0 80 -80 0
-80 0 0 40 0 40 -40 0 -40 0 0 -240 0 -240 40 0 40 0 0 -40 0 -40 -40 0 -40 0
0 -160 0 -160 40 0 40 0 0 120 0 120 40 0 40 0 0 -40 0 -40 80 0 80 0 0 -40 0
-40 -80 0 -80 0 0 -40 0 -40 80 0 80 0 0 40 0 40 40 0 c36 0 40 3 40 25 l0 24
36 -21 37 -22 18 23 c11 13 19 29 19 37 0 8 10 14 25 14 23 0 25 -4 25 -40 l0
-40 -80 0 -80 0 0 -40 0 -40 80 0 80 0 0 40 0 40 40 0 40 0 0 -80 0 -80 40 0
40 0 0 -40 c0 -29 4 -40 15 -40 10 0 15 -10 15 -29 0 -35 9 -61 21 -61 4 0 6
6 3 13 -2 7 2 29 10 48 15 34 15 34 16 -48 l0 -83 -40 0 -40 0 0 40 0 40 -40
0 -40 0 0 -120 0 -120 40 0 40 0 0 40 0 40 40 0 40 0 0 -120 0 -120 120 0 120
0 0 40 0 40 -40 0 -40 0 0 40 0 40 40 0 40 0 0 40 0 40 -40 0 -40 0 0 -40 0
-40 -40 0 -40 0 0 80 0 80 40 0 40 0 0 40 0 40 40 0 40 0 0 80 0 80 30 0 c25
0 32 -7 52 -47 12 -27 25 -57 29 -68 5 -14 7 -8 8 21 1 22 -6 49 -14 60 -22
29 -18 34 20 34 l35 0 0 -80 0 -80 -40 0 -40 0 0 -120 0 -120 40 0 40 0 0 -40
0 -40 -40 0 -40 0 0 -40 0 -40 40 0 40 0 0 40 0 40 40 0 40 0 0 -40 0 -40 80
0 80 0 0 40 0 40 40 0 40 0 0 -40 0 -40 40 0 40 0 0 40 0 40 40 0 40 0 0 -40
0 -40 240 0 240 0 0 40 0 40 80 0 80 0 0 -40 0 -40 120 0 120 0 0 40 0 40 40
0 40 0 0 40 0 40 -80 0 -80 0 0 40 0 40 40 0 40 0 0 40 0 40 -80 0 -80 0 0 80
0 80 -40 0 -40 0 0 120 0 120 -80 0 -80 0 0 40 0 40 -40 0 -40 0 0 80 0 80
-40 0 -40 0 0 40 0 40 40 0 c38 0 40 1 40 33 0 17 4 27 8 21 4 -6 26 -13 49
-16 41 -6 41 -5 33 18 -8 21 -7 24 15 24 13 0 29 -8 34 -17 6 -10 11 -12 11
-5 0 6 6 12 14 12 8 0 18 -22 25 -61 7 -34 15 -67 18 -75 4 -10 -3 -14 -21
-14 -24 0 -26 4 -26 40 l0 40 -40 0 -40 0 0 -40 0 -40 40 0 40 0 0 -40 0 -40
-41 0 -42 0 5 -51 c3 -28 12 -57 19 -65 13 -12 20 -10 51 11 20 14 48 25 62
25 24 0 26 4 26 40 l0 40 80 0 80 0 0 -40 0 -40 -40 0 -40 0 0 -40 0 -40 40 0
40 0 0 -40 0 -40 -40 0 -40 0 0 -40 0 -40 40 0 40 0 0 -40 0 -40 40 0 40 0 0
-40 0 -40 40 0 40 0 0 120 0 120 -40 0 -40 0 0 40 0 40 40 0 40 0 0 40 0 40
-40 0 -40 0 0 80 0 80 -40 0 -40 0 0 40 0 40 -40 0 -40 0 0 -40 c0 -40 0 -40
-39 -40 l-38 0 -27 73 c-14 39 -26 75 -26 80 0 4 47 7 105 7 l105 0 0 120 0
120 -40 0 -40 0 0 40 0 40 -40 0 -40 0 0 40 0 40 40 0 40 0 0 80 0 80 40 0 40
0 0 40 0 40 40 0 40 0 0 -40 0 -40 40 0 40 0 0 160 0 160 -120 0 -120 0 0 -40
0 -40 -40 0 -40 0 0 -40 0 -40 -40 0 -40 0 0 -40 0 -40 80 0 80 0 0 -40 0 -40
-40 0 -40 0 0 -40 0 -40 -40 0 -40 0 0 40 0 40 -40 0 -40 0 0 40 0 40 -40 0
-40 0 0 40 0 40 -64 0 c-63 0 -65 1 -69 28 l-4 27 -2 -27 c-2 -44 -21 -33 -21
12 l0 40 -80 0 -80 0 0 40 0 40 40 0 40 0 0 120 0 120 -40 0 -40 0 0 40 0 40
40 0 40 0 0 40 0 40 40 0 40 0 0 40 0 40 -40 0 -40 0 0 40 0 40 80 0 80 0 0
40 0 40 -160 0 -160 0 0 -40 0 -40 -40 0 -40 0 0 40 0 40 -120 0 -120 0 0 -40
0 -40 -40 0 -40 0 0 40 0 40 -40 0 -40 0 0 -40 0 -40 -40 0 -40 0 0 40 0 40
-120 0 -120 0 0 -80 0 -80 -40 0 -40 0 0 80 0 80 -80 0 -80 0 0 -120z m640 0
l0 -40 40 0 40 0 0 40 0 40 40 0 40 0 0 -40 0 -40 40 0 40 0 0 40 0 40 40 0
40 0 0 -40 0 -40 -40 0 -40 0 0 -40 0 -40 80 0 80 0 0 80 0 80 40 0 40 0 0
-40 0 -40 40 0 40 0 0 -40 0 -40 -40 0 -40 0 0 -40 0 -40 -40 0 -40 0 0 -40 0
-40 40 0 40 0 0 -80 0 -80 -40 0 -40 0 0 -40 c0 -35 -3 -40 -23 -40 -14 0 -32
11 -44 28 -11 15 -37 39 -57 52 -26 19 -36 32 -36 53 0 25 -3 27 -39 27 -22 0
-41 -4 -43 -10 -2 -5 -19 -7 -40 -3 -37 5 -38 7 -38 49 l0 44 80 0 80 0 0 -40
0 -40 40 0 40 0 0 80 0 80 -40 0 -40 0 0 40 0 40 -40 0 -40 0 0 -40 0 -40 -80
0 -80 0 0 -84 c0 -47 -3 -87 -7 -89 -5 -3 -23 -8 -40 -12 -26 -5 -33 -3 -33 9
0 12 -10 16 -40 16 l-40 0 0 -40 0 -40 -40 0 -40 0 0 -40 0 -40 -40 0 -40 0 0
-40 c0 -34 3 -40 21 -40 17 0 20 -4 15 -22 -3 -13 -6 -31 -6 -40 0 -10 -7 -18
-15 -18 -11 0 -15 -11 -15 -40 0 -22 4 -40 10 -40 5 0 14 -19 21 -42 6 -24 20
-60 30 -80 l19 -38 -40 0 -40 0 0 40 0 40 -40 0 -40 0 0 80 0 80 -64 0 c-68 0
-76 6 -76 56 0 23 3 24 70 24 l70 0 0 40 0 40 40 0 40 0 0 40 0 40 -40 0 -40
0 0 80 0 80 -40 0 -40 0 0 40 0 40 40 0 40 0 0 -40 0 -40 40 0 40 0 0 -80 0
-80 40 0 40 0 0 40 0 40 40 0 40 0 0 80 0 80 -40 0 -40 0 0 40 0 40 -80 0 -80
0 0 40 0 40 80 0 80 0 0 -40 0 -40 40 0 40 0 0 -40 0 -40 40 0 40 0 0 40 0 40
40 0 40 0 0 40 0 40 -40 0 -40 0 0 40 0 40 40 0 40 0 0 -40z m-481 -440 c1
-74 0 -80 -19 -80 -25 0 -27 37 -5 80 9 17 13 30 10 30 -8 0 -45 -78 -45 -95
0 -8 -4 -15 -10 -15 -6 0 -10 33 -10 80 l0 80 39 0 39 0 1 -80z m961 -240 l0
-80 40 0 40 0 0 -40 c0 -39 1 -40 34 -40 l35 0 -21 -47 c-32 -75 -110 -145
-185 -168 -20 -6 -23 -3 -23 24 0 31 0 31 -57 31 -46 1 -54 3 -40 11 10 6 36
38 58 72 l39 60 0 -71 0 -72 40 0 40 0 0 40 0 40 40 0 40 0 0 40 0 40 -79 0
-79 0 10 43 c10 42 5 146 -7 180 -6 14 -1 17 34 17 l41 0 0 -80z m720 -40 l0
-40 -40 0 -40 0 0 40 0 40 40 0 40 0 0 -40z m-553 -72 c-3 -7 -5 -2 -5 12 0
14 2 19 5 13 2 -7 2 -19 0 -25z m153 -42 l0 -75 -32 10 c-42 12 -43 12 -28 -6
10 -12 10 -15 -4 -15 -12 0 -16 -10 -16 -40 0 -34 -3 -40 -20 -40 -16 0 -19 4
-12 15 4 9 5 46 1 83 -5 37 -8 84 -8 105 l-1 37 60 0 60 0 0 -74z m-1520 -123
c0 -21 5 -45 10 -53 6 -10 10 -11 10 -2 0 7 13 12 30 12 28 0 30 -2 30 -40 0
-26 -5 -40 -12 -40 -20 1 -55 33 -62 58 -6 18 -15 22 -47 22 -39 0 -39 0 -39
40 l0 40 40 0 c40 0 40 0 40 -37z m1680 -3 l0 -40 -40 0 -40 0 0 -40 0 -40 40
0 40 0 0 -40 0 -40 80 0 80 0 0 -80 0 -80 -40 0 -40 0 0 40 0 40 -40 0 -40 0
0 -40 c0 -32 -4 -40 -18 -40 -13 0 -26 21 -49 78 -16 42 -26 79 -22 80 5 2 9
21 9 43 0 32 -3 39 -20 39 -13 0 -24 10 -31 28 -10 25 -12 26 -19 7 -7 -15 -9
-10 -9 21 -1 23 2 56 5 73 l7 31 73 0 74 0 0 -40z m-1120 -85 c0 -34 1 -35 40
-35 36 0 40 -2 40 -26 0 -20 -4 -25 -16 -20 -9 3 -27 9 -40 12 -13 3 -24 12
-24 20 0 10 -12 14 -40 14 l-40 0 0 76 0 76 40 -41 c31 -32 40 -49 40 -76z
m-160 20 c0 -22 -2 -24 -24 -13 -38 17 -41 38 -6 38 25 0 30 -4 30 -25z m-160
-42 c0 -7 10 -13 21 -13 19 0 125 -53 139 -69 3 -3 22 -14 43 -24 30 -13 38
-22 35 -40 -2 -17 -11 -23 -35 -25 -31 -3 -32 -2 -27 26 6 28 2 31 -80 75 -65
36 -92 45 -114 41 -23 -5 -30 -1 -39 18 -9 18 -12 -4 -12 -109 l-1 -133 39
-20 c49 -24 57 -36 30 -43 -29 -8 -47 1 -56 26 -6 20 -7 20 -14 -8 -4 -20 -7
-5 -8 48 l-1 77 -36 0 c-28 0 -35 3 -32 18 2 10 11 16 21 14 12 -2 17 4 17 23
0 16 6 25 15 25 12 0 15 15 15 74 l0 74 40 -21 c22 -12 40 -28 40 -34z m1120
17 c0 -30 -1 -30 -52 -30 l-53 0 50 30 c28 16 51 29 53 29 1 1 2 -12 2 -29z
m-480 -50 l0 -30 -80 0 c-78 0 -80 1 -80 25 0 23 3 24 68 28 37 2 73 4 80 5 7
1 12 -10 12 -28z m-905 -16 c-8 -20 -15 -38 -15 -40 0 -2 -9 -4 -21 -4 -18 0
-20 -5 -18 -52 3 -75 -13 -108 -51 -108 -28 0 -30 -2 -30 -40 l0 -40 -80 0
-80 0 0 -40 0 -40 64 0 65 0 -15 -35 c-7 -19 -14 -55 -14 -80 l0 -45 -90 0
-90 0 0 80 0 80 -40 0 -40 0 0 40 0 40 40 0 40 0 0 40 0 40 120 0 120 0 0 80
0 80 40 0 40 0 0 40 c0 39 1 40 35 40 l35 0 -15 -36z m1065 28 c0 -4 -18 -13
-40 -19 -36 -9 -40 -8 -40 8 0 15 8 19 40 19 22 0 40 -4 40 -8z m360 -32 c0
-33 -3 -40 -20 -40 -18 0 -20 -7 -20 -79 0 -54 4 -81 12 -83 22 -8 -39 -78
-68 -78 -21 0 -24 -5 -24 -34 0 -36 -12 -46 -56 -46 -19 0 -24 -5 -24 -24 0
-26 -33 -57 -60 -55 -10 0 -11 2 -2 6 14 5 17 63 3 63 -5 0 -12 -6 -14 -12 -3
-7 -6 13 -6 45 l-1 57 -40 0 -40 0 0 40 0 40 -80 0 c-62 0 -80 3 -80 14 0 21
-23 26 -126 26 l-94 0 0 -60 c0 -33 -4 -60 -10 -60 -6 0 -10 30 -10 70 0 60 3
70 18 71 14 0 14 2 -3 9 -12 5 75 9 217 9 l237 1 -20 -35 c-12 -19 -16 -35
-11 -35 6 0 14 5 17 10 9 15 25 12 25 -5 0 -11 11 -15 40 -15 l40 0 0 40 c0
36 -2 40 -25 40 -21 0 -25 5 -25 28 l-1 27 -14 -25 -14 -25 -1 37 c0 31 5 40
34 57 41 26 46 26 46 1 0 -18 7 -20 80 -20 64 0 80 3 80 15 0 8 7 15 15 15 9
0 15 9 15 25 0 14 2 25 5 25 3 0 5 -18 5 -40z m80 37 c0 -2 -13 -13 -30 -25
l-30 -23 0 26 c0 21 5 25 30 25 17 0 30 -1 30 -3z m-1480 -62 c0 -8 -4 -15
-10 -15 -5 0 -7 7 -4 15 4 8 8 15 10 15 2 0 4 -7 4 -15z m1595 -92 c20 -53 25
-78 17 -81 -7 -2 -12 -18 -13 -35 0 -24 -10 -5 -38 73 -20 58 -35 108 -33 113
2 4 11 7 21 7 14 0 26 -20 46 -77z m-1627 -43 c-6 -24 -16 -40 -25 -40 -10 0
-13 6 -9 16 3 9 9 27 12 40 3 13 12 24 19 24 10 0 11 -9 3 -40z m860 -17 c-10
-2 -28 -2 -40 0 -13 2 -5 4 17 4 22 1 32 -1 23 -4z m-141 -80 c-2 -16 -4 -3
-4 27 0 30 2 43 4 28 2 -16 2 -40 0 -55z m-607 17 c0 -39 1 -40 35 -40 l34 0
-6 -49 -5 -48 52 -29 c33 -18 47 -30 37 -32 -9 -2 -25 1 -35 7 -25 13 -32 -2
-32 -64 0 -23 -3 -57 -6 -74 -6 -27 -10 -31 -40 -31 l-34 0 0 160 0 160 -26 0
c-20 0 -25 4 -20 16 3 9 9 27 12 40 10 40 34 29 34 -16z m480 -40 c0 -73 -2
-80 -20 -80 -18 0 -20 7 -20 80 0 73 2 80 20 80 18 0 20 -7 20 -80z m946 38
l13 -38 -40 0 c-39 0 -39 0 -39 -40 0 -33 -3 -40 -20 -40 -18 0 -20 7 -20 81
l0 80 47 -3 c43 -3 47 -5 59 -40z m-1589 -55 c-2 -10 -8 -27 -13 -37 -7 -18
-4 -19 44 -12 34 4 52 3 52 -4 0 -5 -18 -10 -40 -10 l-40 0 0 -40 0 -40 40 0
40 0 0 -40 0 -40 -40 0 c-31 0 -40 -4 -40 -17 0 -13 -15 -3 -49 32 l-49 51 10
57 c9 50 13 57 29 52 14 -5 20 0 25 22 9 36 13 43 26 43 6 0 8 -8 5 -17z
m1043 -23 l0 -40 41 0 40 0 -3 -37 c-3 -36 -5 -38 -40 -41 l-38 -3 0 40 c0 39
-2 41 -29 41 -24 0 -31 6 -40 31 -16 47 -15 49 29 49 l40 0 0 -40z m-482 -63
c2 -10 -8 -16 -27 -19 -33 -5 -41 5 -41 49 l0 25 33 -21 c17 -11 33 -26 35
-34z m182 -17 c0 -22 -4 -40 -10 -40 -5 0 -10 -13 -10 -30 0 -28 -2 -30 -40
-30 -38 0 -40 2 -40 30 0 28 2 30 40 30 l40 0 0 40 c0 22 5 40 10 40 6 0 10
-18 10 -40z m53 -34 c12 -3 55 -6 95 -6 70 0 72 -1 72 -25 0 -24 -2 -25 -64
-25 -35 0 -71 -3 -80 -6 -13 -5 -16 1 -16 25 0 26 -4 31 -23 31 -21 0 -22 3
-17 43 l5 42 3 -36 c2 -28 8 -38 25 -43z m653 0 c15 -15 18 -44 8 -70 -5 -13
-23 -16 -90 -16 l-84 0 0 -40 0 -40 -80 0 c-44 0 -80 2 -80 5 0 12 113 75 135
75 15 0 25 6 25 14 0 16 106 84 133 85 10 1 25 -5 33 -13z m74 -46 c0 -33 -3
-40 -20 -40 -17 0 -20 7 -20 40 0 33 3 40 20 40 17 0 20 -7 20 -40z m-560
-155 l0 -45 40 0 40 0 0 40 c0 38 2 40 30 40 28 0 30 -2 30 -40 0 -38 -2 -40
-30 -40 -27 0 -30 -3 -30 -30 0 -24 -6 -33 -26 -40 -46 -18 -54 -13 -54 30 l0
40 -40 0 -40 0 0 -40 0 -40 -80 0 -80 0 0 40 0 40 -60 0 -60 0 0 40 0 40 100
0 100 0 0 -40 0 -40 40 0 40 0 0 45 0 45 40 0 40 0 0 -45z m-436 -8 c-2 -44
-5 -50 -28 -41 -11 4 -16 18 -16 46 0 35 2 39 23 36 19 -3 22 -9 21 -41z m996
3 l0 -40 -40 0 c-39 0 -40 1 -40 33 0 42 5 47 47 47 32 0 33 -1 33 -40z
m-1200 -27 c0 -9 -14 -13 -40 -13 -39 0 -40 1 -40 36 l0 35 40 -22 c22 -13 40
-29 40 -36z m872 -53 c-34 -22 -65 -40 -67 -40 -3 0 -5 18 -5 40 l0 40 68 0
67 0 -63 -40z m168 -10 c0 -27 -2 -50 -4 -50 -2 0 -11 11 -20 25 -12 18 -13
30 -6 50 15 41 30 29 30 -25z m-877 -41 c-7 -25 -10 -24 -15 5 -3 16 -1 23 7
19 7 -2 11 -13 8 -24z m-146 -26 c-20 -31 -31 -39 -61 -41 l-36 -3 0 40 0 41
60 0 60 0 -23 -37z m1423 -83 l0 -120 -120 0 -120 0 0 120 0 120 120 0 120 0
0 -120z m-412 77 c7 -18 12 -52 12 -75 0 -38 2 -42 25 -42 17 0 25 -6 26 -17
1 -17 2 -17 6 0 8 32 23 17 23 -23 l0 -40 -40 0 -40 0 0 -40 0 -40 80 0 80 0
0 -40 0 -40 40 0 40 0 0 40 0 40 40 0 40 0 0 -120 0 -120 -40 0 -40 0 0 40 0
40 -40 0 -40 0 0 -40 0 -40 -120 0 -120 0 0 40 0 40 -80 0 -80 0 0 -40 0 -40
-40 0 -40 0 0 40 0 40 -80 0 -80 0 0 40 0 40 -80 0 -80 0 0 80 0 80 80 0 80 0
0 -40 0 -40 40 0 40 0 0 -40 0 -40 160 0 160 0 0 -40 0 -40 120 0 120 0 0 40
0 40 -80 0 -80 0 0 40 0 40 -40 0 -40 0 0 40 0 40 40 0 40 0 0 40 0 40 -40 0
-40 0 0 40 c0 22 4 40 9 40 5 0 15 16 21 35 14 44 23 44 38 2z m-958 -29 c0
-5 -9 -8 -20 -8 -23 0 -26 10 -8 28 9 9 14 9 20 -1 4 -6 8 -15 8 -19z m490 7
c0 -11 -11 -15 -40 -15 -29 0 -40 4 -40 15 0 11 11 15 40 15 29 0 40 -4 40
-15z m174 0 c-4 -8 -8 -15 -10 -15 -2 0 -4 7 -4 15 0 8 4 15 10 15 5 0 7 -7 4
-15z m66 0 c0 -8 -6 -15 -13 -15 -8 0 -14 7 -14 15 0 8 6 15 14 15 7 0 13 -7
13 -15z m-640 -100 l0 -75 -40 0 -40 0 0 69 c0 64 2 70 23 74 58 11 57 13 57
-68z m542 -35 c3 -39 3 -40 -29 -40 -32 0 -33 1 -33 40 0 37 2 40 29 40 26 0
29 -3 33 -40z m178 -40 l0 -80 -40 0 -40 0 0 40 c0 39 -1 40 -34 40 -41 0 -50
10 -41 50 7 30 7 30 81 30 l74 0 0 -80z m720 -120 l0 -40 -80 0 -80 0 0 40 0
40 80 0 80 0 0 -40z m0 -160 l0 -40 -40 0 -40 0 0 40 0 40 40 0 40 0 0 -40z"/>
<path d="M1460 2550 l0 -40 40 0 40 0 0 40 0 40 -40 0 -40 0 0 -40z"/>
<path d="M1700 2230 l0 -40 40 0 40 0 0 40 0 40 -40 0 -40 0 0 -40z"/>
<path d="M980 1990 l0 -40 40 0 40 0 0 40 0 40 -40 0 -40 0 0 -40z"/>
<path d="M2180 630 l0 -40 40 0 40 0 0 40 0 40 -40 0 -40 0 0 -40z"/>
<path d="M2180 2470 l0 -280 280 0 280 0 0 280 0 280 -280 0 -280 0 0 -280z
m480 0 l0 -200 -200 0 -200 0 0 200 0 200 200 0 200 0 0 -200z"/>
<path d="M2340 2470 l0 -120 120 0 120 0 0 120 0 120 -120 0 -120 0 0 -120z"/>
<path d="M2020 2390 l0 -40 40 0 40 0 0 40 0 40 -40 0 -40 0 0 -40z"/>
<path d="M2020 2190 l0 -80 40 0 40 0 0 -40 0 -40 120 0 120 0 0 40 0 40 -120
0 -120 0 0 80 0 80 -40 0 -40 0 0 -80z"/>
<path d="M260 2030 l0 -80 40 0 40 0 0 40 0 40 40 0 40 0 0 -40 0 -40 40 0 40
0 0 80 0 80 -120 0 -120 0 0 -80z"/>
<path d="M100 1910 l0 -120 40 0 40 0 0 -40 0 -40 40 0 40 0 0 80 0 80 -40 0
-40 0 0 80 0 80 -40 0 -40 0 0 -120z"/>
<path d="M340 1830 l0 -40 40 0 40 0 0 40 0 40 -40 0 -40 0 0 -40z"/>
<path d="M340 1670 l0 -40 40 0 40 0 0 40 0 40 -40 0 -40 0 0 -40z"/>
<path d="M2580 1590 l0 -40 40 0 40 0 0 -80 0 -80 40 0 40 0 0 80 0 80 -40 0
-40 0 0 40 0 40 -40 0 -40 0 0 -40z"/>
<path d="M100 390 l0 -280 280 0 280 0 0 280 0 280 -280 0 -280 0 0 -280z
m480 0 l0 -200 -200 0 -200 0 0 200 0 200 200 0 200 0 0 -200z"/>
<path d="M260 390 l0 -120 120 0 120 0 0 120 0 120 -120 0 -120 0 0 -120z"/>
</g>
</svg>
